<svg width="512" height="512" xmlns="http://www.w3.org/2000/svg" style="vector-effect: non-scaling-stroke;" stroke="null" preserveAspectRatio="xMidYMid meet">
 <defs style="vector-effect: non-scaling-stroke;" stroke="null">
  <pattern style="vector-effect: non-scaling-stroke;" stroke="null" viewBox="0 0 10 10" height="10" width="10" y="0" x="0" patternUnits="userSpaceOnUse" id="svgEditorGrid0">

   <g style="vector-effect: non-scaling-stroke;" id="svg_3">
    <path style="vector-effect: non-scaling-stroke;" stroke="null" id="svg_4" stroke-width="0.4" d="m0,0m10,0m0,10m-10,0"/>
    <path style="vector-effect: non-scaling-stroke;" stroke="null" id="svg_5" stroke-width="0.2" d="m5,0m-5,5m5,0m5,0m-5,5"/>
    <g style="vector-effect: non-scaling-stroke;" stroke="null" id="svg_6" stroke-width="0.125">
     <path style="vector-effect: non-scaling-stroke;" stroke="null" id="svg_7" d="m1,0m1,0m1,0m1,0m2,0m1,0m1,0m1,0"/>
     <path style="vector-effect: non-scaling-stroke;" stroke="null" id="svg_8" d="m0,1m1,0m1,0m1,0m1,0m1,0m1,0m1,0m1,0m1,0m1,0"/>
     <path style="vector-effect: non-scaling-stroke;" stroke="null" id="svg_9" d="m0,2m1,0m1,0m1,0m1,0m1,0m1,0m1,0m1,0m1,0m1,0"/>
     <path style="vector-effect: non-scaling-stroke;" stroke="null" id="svg_10" d="m0,3m1,0m1,0m1,0m1,0m1,0m1,0m1,0m1,0m1,0m1,0"/>
     <path style="vector-effect: non-scaling-stroke;" stroke="null" id="svg_11" d="m0,4m1,0m1,0m1,0m1,0m1,0m1,0m1,0m1,0m1,0m1,0"/>
     <path style="vector-effect: non-scaling-stroke;" stroke="null" id="svg_12" d="m1,5m1,0m1,0m1,0m2,0m1,0m1,0m1,0"/>
     <path style="vector-effect: non-scaling-stroke;" stroke="null" id="svg_13" d="m0,6m1,0m1,0m1,0m1,0m1,0m1,0m1,0m1,0m1,0m1,0"/>
     <path style="vector-effect: non-scaling-stroke;" stroke="null" id="svg_14" d="m0,7m1,0m1,0m1,0m1,0m1,0m1,0m1,0m1,0m1,0m1,0"/>
     <path style="vector-effect: non-scaling-stroke;" stroke="null" id="svg_15" d="m0,8m1,0m1,0m1,0m1,0m1,0m1,0m1,0m1,0m1,0m1,0"/>
     <path style="vector-effect: non-scaling-stroke;" stroke="null" id="svg_16" d="m0,9m1,0m1,0m1,0m1,0m1,0m1,0m1,0m1,0m1,0m1,0"/>
     <path style="vector-effect: non-scaling-stroke;" stroke="null" id="svg_17" d="m1,10m1,0m1,0m1,0m2,0m1,0m1,0m1,0"/>
    </g>
   </g>
  </pattern>
  <pattern style="vector-effect: non-scaling-stroke;" stroke="null" viewBox="0 0 10 10" height="10" width="10" y="0" x="0" patternUnits="userSpaceOnUse" id="svgEditorGrid1">
   <g style="vector-effect: non-scaling-stroke;" id="svg_18">
    <path style="vector-effect: non-scaling-stroke;" stroke="null" id="svg_19" stroke-width="0.4" d="m0,0m10,0m0,10m-10,0"/>
    <path style="vector-effect: non-scaling-stroke;" stroke="null" id="svg_20" stroke-width="0.2" d="m5,0m-5,5m5,0m5,0m-5,5"/>
    <g style="vector-effect: non-scaling-stroke;" stroke="null" id="svg_21" stroke-width="0.125">
     <path style="vector-effect: non-scaling-stroke;" stroke="null" id="svg_22" d="m1,0m1,0m1,0m1,0m2,0m1,0m1,0m1,0"/>
     <path style="vector-effect: non-scaling-stroke;" stroke="null" id="svg_23" d="m0,1m1,0m1,0m1,0m1,0m1,0m1,0m1,0m1,0m1,0m1,0"/>
     <path style="vector-effect: non-scaling-stroke;" stroke="null" id="svg_24" d="m0,2m1,0m1,0m1,0m1,0m1,0m1,0m1,0m1,0m1,0m1,0"/>
     <path style="vector-effect: non-scaling-stroke;" stroke="null" id="svg_25" d="m0,3m1,0m1,0m1,0m1,0m1,0m1,0m1,0m1,0m1,0m1,0"/>
     <path style="vector-effect: non-scaling-stroke;" stroke="null" id="svg_26" d="m0,4m1,0m1,0m1,0m1,0m1,0m1,0m1,0m1,0m1,0m1,0"/>
     <path style="vector-effect: non-scaling-stroke;" stroke="null" id="svg_27" d="m1,5m1,0m1,0m1,0m2,0m1,0m1,0m1,0"/>
     <path style="vector-effect: non-scaling-stroke;" stroke="null" id="svg_28" d="m0,6m1,0m1,0m1,0m1,0m1,0m1,0m1,0m1,0m1,0m1,0"/>
     <path style="vector-effect: non-scaling-stroke;" stroke="null" id="svg_29" d="m0,7m1,0m1,0m1,0m1,0m1,0m1,0m1,0m1,0m1,0m1,0"/>
     <path style="vector-effect: non-scaling-stroke;" stroke="null" id="svg_30" d="m0,8m1,0m1,0m1,0m1,0m1,0m1,0m1,0m1,0m1,0m1,0"/>
     <path style="vector-effect: non-scaling-stroke;" stroke="null" id="svg_31" d="m0,9m1,0m1,0m1,0m1,0m1,0m1,0m1,0m1,0m1,0m1,0"/>
     <path style="vector-effect: non-scaling-stroke;" stroke="null" id="svg_32" d="m1,10m1,0m1,0m1,0m2,0m1,0m1,0m1,0"/>
    </g>
   </g>
  </pattern>
  <pattern style="vector-effect: non-scaling-stroke;" stroke="null" viewBox="0 0 10 10" height="20" width="20" y="0" x="0" patternUnits="userSpaceOnUse" id="svgEditorGrid2">
   <g stroke="black" style="vector-effect: non-scaling-stroke;" id="svg_33" fill="none" stroke-width="0.4" transform="scale(0.10000000149011612) ">troisieme niveau 10 1
    <g style="vector-effect: non-scaling-stroke;" stroke="null" id="svg_34" stroke-dasharray="2 8">
     <path style="vector-effect: non-scaling-stroke;" stroke="null" id="svg_35" d="m-1,0l102,0m-102,10l102,0m-102,10l102,0m-102,10l102,0m-102,10l102,0m-102,10l102,0m-102,10l102,0m-102,10l102,0m-102,10l102,0m-102,10l102,0m-102,10l102,0"/>
     <path style="vector-effect: non-scaling-stroke;" stroke="null" id="svg_36" d="m0,-1l0,102m10,-102l0,102m10,-102l0,102m10,-102l0,102m10,-102l0,102m10,-102l0,102m10,-102l0,102m10,-102l0,102m10,-102l0,102m10,-102l0,102m10,-102l0,102"/>
    </g>deuxieme niveau 50/3
    <g style="vector-effect: non-scaling-stroke;" stroke="null" id="svg_37" stroke-dasharray="6 44">
     <path style="vector-effect: non-scaling-stroke;" stroke="null" id="svg_38" d="m-3,0l106,0m-106,50l106,0m-106,50l106,0"/>
     <path style="vector-effect: non-scaling-stroke;" stroke="null" id="svg_39" d="m0,-3l0,106m50,-106l0,106m50,-106l0,106"/>
    </g>premier niveau 100/5
    <g style="vector-effect: non-scaling-stroke;" stroke="null" id="svg_40" stroke-dasharray="10 90">
     <path style="vector-effect: non-scaling-stroke;" stroke="null" id="svg_41" d="m-5,0l110,0m-110,100l110,0"/>
     <path style="vector-effect: non-scaling-stroke;" stroke="null" id="svg_42" d="m0,-5l0,119m100,-119l0,110"/>
    </g></g>
  </pattern>
 </defs>
 <g stroke="null">
  <title stroke="null">background</title>
  <rect stroke="null" fill="none" id="canvas_background" height="514" width="514" y="-1" x="-1"/>
 </g>
 <g stroke="null">
  <title stroke="null">Layer 1</title>
  <circle stroke="null" stroke-width=" 1px" fill="#f8b332" r="253.066376" cy="258.933639" cx="256.000002" id="e3_circle"/>
  <text transform="translate(433.8349914550781,511.3830871582031) scale(1) translate(-433.8349914550781,-511.3830871582031) translate(433.6414794921875,512.0693359375) scale(0.9355034232139587,0.9980063438415527) translate(-433.6414794921875,-512.0693359375) matrix(23.210629506111143,0,0,22.195947818756103,-5015.877791637717,-2651.4255380277564) " font-weight="bold" stroke="null" font-family=" Arial" fill="white" font-size="19" id="e4_texte" y="137.547349" x="221.33192">J</text>
 </g>
</svg>
